<?xml version="1.0" encoding="UTF-8" standalone="no"?>
<!DOCTYPE svg PUBLIC "-//W3C//DTD SVG 1.1//EN" "http://www.w3.org/Graphics/SVG/1.1/DTD/svg11.dtd">
<svg width="100%" height="100%" viewBox="0 0 600 600" version="1.1" xmlns="http://www.w3.org/2000/svg" xmlns:xlink="http://www.w3.org/1999/xlink" xml:space="preserve" xmlns:serif="http://www.serif.com/" style="fill-rule:evenodd;clip-rule:evenodd;stroke-linejoin:round;stroke-miterlimit:2;">
    <g transform="matrix(1,0,0,1,-661.089,-0.0579254)">
        <g id="man" transform="matrix(1.84053,0,0,0.946202,98.7293,73.7559)">
            <rect x="305.542" y="-77.888" width="325.992" height="634.114" style="fill:none;"/>
            <g transform="matrix(0.543321,0,0,1.08214,-53.6417,-92.6741)">
                <path d="M909.318,88.666C909.311,85.101 909.721,81.446 910.649,77.773C916.86,53.198 947.782,53.419 947.782,53.419C964.572,52.993 969.506,62.897 975.985,75.688C977.926,79.519 978.784,83.903 978.813,88.475C979.985,87.551 981.304,87.336 981.761,90.385C983.057,99.031 979.635,106.938 976.774,103.277C976.686,103.164 976.61,103.003 976.546,102.802C972.596,115.64 965.306,125.924 956.978,127.107L961.089,141.888L1003.39,150.286C1003.39,150.286 1009.15,153.551 1010.19,156.574C1012.79,164.065 1010.88,240.818 1010.88,240.818L1016.52,329.549L1009.87,349.683L1002,341.38L1004.14,328.5L1001.85,316.641C1001.57,322.48 1000.29,326.143 996.455,324.256L1001.76,299.138L992.377,243.287L988.454,176.602C981.804,225.537 983.151,265.205 986.71,299.746L992.059,439.486L980.905,534.37C980.905,534.37 996.057,556.405 1000.98,566.398C1005.9,576.391 979.067,579.546 972.593,577.385C966.118,575.223 956.559,553.784 956.559,553.784L956.339,540.39L961.089,438.802L947.782,341.839L937.498,433.878L928.494,541.664L922.178,564.647C922.178,564.647 917.429,576.717 900.891,581.727C884.354,586.737 885.919,565.279 885.919,565.279L903.282,538.372L901.142,429.911L901.422,300.058C905.352,272.354 903.748,227.31 901.192,176.064L894.904,237.688L864.115,303.907L852.034,323.134C847.033,329.978 840.516,333.07 833.153,334.07C830.784,331.693 829.312,329.084 830.173,325.87L834.686,318.227L845.625,304.124C840.83,310.828 834.377,312.937 833.421,309.568C837.376,302.647 841.552,295.755 852.484,289.746L873.776,242.136C873.776,242.136 876.855,168.507 878.283,160.321C879.71,152.135 886.554,149.303 886.554,149.303L929.027,141.494L931.187,127.673C924.558,126.156 915.481,116.01 911.425,102.557C911.348,102.875 911.25,103.122 911.129,103.277C908.268,106.938 904.845,99.031 906.142,90.385C906.629,87.136 908.095,87.593 909.318,88.666Z" style="fill:rgb(200,135,62);"/>
            </g>
            <g transform="matrix(0.543321,0,0,1.08214,-53.6417,-92.6741)">
                <path d="M901.454,292.236L987.303,293.132L992.059,389.417L950.977,390.314L948.319,352.242L943.72,391.436L899.029,387.553L901.454,292.236Z" style="fill:white;"/>
            </g>
            <g>
                <g transform="matrix(0.543321,0,0,1.08214,-53.6417,-88.7833)">
                    <path d="M934.767,109.84L957.63,109.722C957.63,109.722 948.349,114.618 934.767,109.84Z" style="fill:rgb(187,119,64);"/>
                </g>
                <g transform="matrix(0.807479,0,0,1.60826,-296.968,-139.917)">
                    <circle cx="927.981" cy="92.123" r="2.328"/>
                </g>
                <g transform="matrix(0.807479,0,0,1.60826,-282.666,-139.917)">
                    <circle cx="927.981" cy="92.123" r="2.328"/>
                </g>
            </g>
        </g>
    </g>
</svg>
