<?xml version="1.0" encoding="UTF-8" standalone="no"?>
<!DOCTYPE svg PUBLIC "-//W3C//DTD SVG 1.1//EN" "http://www.w3.org/Graphics/SVG/1.1/DTD/svg11.dtd">
<svg width="100%" height="100%" viewBox="0 0 600 600" version="1.1" xmlns="http://www.w3.org/2000/svg" xmlns:xlink="http://www.w3.org/1999/xlink" xml:space="preserve" xmlns:serif="http://www.serif.com/" style="fill-rule:evenodd;clip-rule:evenodd;stroke-linejoin:round;stroke-miterlimit:2;">
    <g transform="matrix(1,0,0,1,-661.089,-0.0579254)">
        <g id="man" transform="matrix(1.84053,0,0,0.946202,98.7293,73.7559)">
            <rect x="305.542" y="-77.888" width="325.992" height="634.114" style="fill:none;"/>
            <g>
                <g transform="matrix(0.543321,0,0,1.05686,-53.6417,-77.9494)">
                    <path d="M899.029,540.657C899.029,540.657 900.601,534.509 909.492,535.357C918.384,536.206 919.267,537.967 918.697,541.441C918.127,544.914 918.127,547.861 918.127,547.861L929.2,533.797L930.226,540.542L923.224,564.715C923.224,564.715 912.949,579.473 907.57,581.098C902.192,582.723 892.487,585.652 889.401,582.485C886.316,579.319 884.953,564.456 884.953,564.456C884.953,564.456 898.463,541.152 899.029,540.657Z" style="fill:rgb(154,144,124);"/>
                </g>
                <g transform="matrix(0.543321,0,0,1.05686,-53.6417,-77.9494)">
                    <path d="M956.304,537.782L964.776,550.696L971.171,553.385L967.437,546.024L977.808,537.597C977.808,537.597 982.278,534.934 985.673,537.597C989.069,540.26 992.059,546.2 992.059,546.2L999.519,560.875C999.519,560.875 1003.86,567.104 1002.44,569.541C1001.02,571.979 995.925,576.602 989.135,577.779C982.344,578.955 973.948,579.996 970.16,576.768C966.371,573.541 955.747,553.647 955.747,553.647C955.747,553.647 955.393,541.166 956.304,537.782Z" style="fill:rgb(154,144,124);"/>
                </g>
            </g>
        </g>
    </g>
</svg>
