<?xml version="1.0" encoding="UTF-8" standalone="no"?>
<!DOCTYPE svg PUBLIC "-//W3C//DTD SVG 1.1//EN" "http://www.w3.org/Graphics/SVG/1.1/DTD/svg11.dtd">
<svg width="100%" height="100%" viewBox="0 0 600 600" version="1.1" xmlns="http://www.w3.org/2000/svg" xmlns:xlink="http://www.w3.org/1999/xlink" xml:space="preserve" xmlns:serif="http://www.serif.com/" style="fill-rule:evenodd;clip-rule:evenodd;stroke-linejoin:round;stroke-miterlimit:1.41421;">
    <g id="women" transform="matrix(1.84053,0,0,0.946202,-562.36,73.698)">
        <rect x="305.542" y="-77.888" width="325.992" height="634.114" style="fill:none;"/>
        <g transform="matrix(0.543321,0,0,1.05686,305.542,-77.8882)">
            <path d="M283.831,66.925C283.831,66.925 286.825,80.169 294.224,82.563C301.623,84.956 308.975,86.239 309.981,88.572C309.981,88.572 315.067,91.073 310.813,99.396C310.813,99.396 306.57,108.704 306.059,112.1C305.548,115.496 299.813,119.303 297.964,122.942C296.115,126.582 291.892,128.471 292.815,133.959C293.738,139.448 297.771,148.362 297.771,148.362C297.771,148.362 296.957,149.473 305.854,152.804C314.752,156.135 313.417,154.384 313.417,154.384C313.417,154.384 324.388,101.538 316.862,79.322C309.337,57.106 294.169,52.578 287.378,51.629C280.587,50.68 253.371,57.974 253.72,84.611C254.068,111.248 257.724,113.542 260.199,124.279C262.674,135.015 266.26,151.347 266.26,151.347C266.26,151.347 275.464,153.285 277.276,146.723C279.087,140.161 281.403,134.397 277.939,128.478C274.475,122.558 266.135,114.675 263.834,109.795C261.532,104.915 262.763,86.554 265.095,80.72C267.428,74.886 283.831,66.925 283.831,66.925Z" style="fill:rgb(223,187,126);"/>
        </g>
    </g>
</svg>
