<?xml version="1.0" encoding="UTF-8" standalone="no"?>
<!DOCTYPE svg PUBLIC "-//W3C//DTD SVG 1.1//EN" "http://www.w3.org/Graphics/SVG/1.1/DTD/svg11.dtd">
<svg width="100%" height="100%" viewBox="0 0 600 600" version="1.1" xmlns="http://www.w3.org/2000/svg" xmlns:xlink="http://www.w3.org/1999/xlink" xml:space="preserve" xmlns:serif="http://www.serif.com/" style="fill-rule:evenodd;clip-rule:evenodd;stroke-linejoin:round;stroke-miterlimit:2;">
    <g transform="matrix(1,0,0,1,-661.089,-0.0579254)">
        <g id="man" transform="matrix(1.84053,0,0,0.946202,98.7293,73.7559)">
            <rect x="305.542" y="-77.888" width="325.992" height="634.114" style="fill:none;"/>
            <g transform="matrix(0.543321,0,0,1.05686,-53.6417,-77.9494)">
                <path d="M900.395,285.294L899.029,430.308L899.029,530.316L932.571,534.251L943.605,413.036L948.583,348.889L954.171,434.107L954.357,537.597C954.357,537.597 978.545,531.349 981.746,536.414C984.946,541.478 985.286,535.32 985.286,535.32L993.976,436.278L992.059,364.604L988.095,287.184L900.395,285.294Z" style="fill:rgb(50,57,70);"/>
            </g>
        </g>
    </g>
</svg>
