<?xml version="1.0" encoding="UTF-8" standalone="no"?>
<!DOCTYPE svg PUBLIC "-//W3C//DTD SVG 1.1//EN" "http://www.w3.org/Graphics/SVG/1.1/DTD/svg11.dtd">
<svg width="100%" height="100%" viewBox="0 0 600 600" version="1.1" xmlns="http://www.w3.org/2000/svg" xmlns:xlink="http://www.w3.org/1999/xlink" xml:space="preserve" xmlns:serif="http://www.serif.com/" style="fill-rule:evenodd;clip-rule:evenodd;stroke-linejoin:round;stroke-miterlimit:2;">
    <g transform="matrix(1,0,0,1,-661.089,-0.0579254)">
        <g id="man" transform="matrix(1.84053,0,0,0.946202,98.7293,73.7559)">
            <rect x="305.542" y="-77.888" width="325.992" height="634.114" style="fill:none;"/>
            <g transform="matrix(0.543321,0,0,1.05686,-53.6417,-77.9494)">
                <path d="M927.338,130.097L944.872,159.329L964.09,130.544C964.09,130.544 974.03,132.55 980.252,134.149C986.473,135.748 1002.93,138.205 1005.24,139.711C1007.55,141.217 1011.39,140.794 1011.79,153.899C1012.19,167.003 1013.07,198.465 1013.07,198.465L989.31,199.675L988.531,173.377C988.531,173.377 984.803,218.978 985.712,233.537C986.622,248.096 988.85,287.184 988.85,287.184L899.408,286.362C899.408,286.362 901.749,250.416 901.749,234.178C901.749,217.94 901.491,176.567 901.491,176.567L899.176,197.126L874.141,194.405L877.23,152.609C877.23,152.609 877.033,139.48 887.725,137.401C898.417,135.321 927.338,130.097 927.338,130.097Z" style="fill:rgb(117,134,165);"/>
            </g>
        </g>
    </g>
</svg>
