<?xml version="1.0" encoding="UTF-8" standalone="no"?>
<!DOCTYPE svg PUBLIC "-//W3C//DTD SVG 1.1//EN" "http://www.w3.org/Graphics/SVG/1.1/DTD/svg11.dtd">
<svg width="100%" height="100%" viewBox="0 0 600 600" version="1.1" xmlns="http://www.w3.org/2000/svg" xmlns:xlink="http://www.w3.org/1999/xlink" xml:space="preserve" xmlns:serif="http://www.serif.com/" style="fill-rule:evenodd;clip-rule:evenodd;stroke-linejoin:round;stroke-miterlimit:1.41421;">
    <g id="women" transform="matrix(1.84053,0,0,0.946202,-562.36,73.698)">
        <rect x="305.542" y="-77.888" width="325.992" height="634.114" style="fill:none;"/>
        <g transform="matrix(0.543321,0,0,1.05686,415.697,-77.8882)">
            <path d="M68.889,149.767C68.889,149.767 86.382,161.131 98.735,149.761C98.735,149.761 107.052,152.763 111.766,153.907C116.48,155.051 123.238,161.861 126.589,169.547C129.94,177.233 132.024,186.498 132.024,186.498L115.199,191.96L110.046,178.721C110.046,178.721 107.255,218.414 109.021,225.128C110.788,231.841 119.334,261.544 119.334,261.544C119.334,261.544 97.192,276.748 72.735,270.052C48.279,263.355 47.94,264.672 47.94,264.672C47.94,264.672 57.411,233.842 58.616,226.474C59.822,219.105 60.194,183.166 60.194,183.166L57.86,191.617L42.864,187.408C42.864,187.408 46.155,162.718 47.435,161.267C48.715,159.816 62.222,150.368 68.889,149.767Z" style="fill:rgb(156,219,204);"/>
        </g>
    </g>
</svg>
