<?xml version="1.0" encoding="UTF-8" standalone="no"?>
<!DOCTYPE svg PUBLIC "-//W3C//DTD SVG 1.1//EN" "http://www.w3.org/Graphics/SVG/1.1/DTD/svg11.dtd">
<svg width="100%" height="100%" viewBox="0 0 600 600" version="1.1" xmlns="http://www.w3.org/2000/svg" xmlns:xlink="http://www.w3.org/1999/xlink" xml:space="preserve" xmlns:serif="http://www.serif.com/" style="fill-rule:evenodd;clip-rule:evenodd;stroke-linejoin:round;stroke-miterlimit:1.41421;">
    <g id="women" transform="matrix(1.84053,0,0,0.946202,-562.36,73.698)">
        <rect x="305.542" y="-77.888" width="325.992" height="634.114" style="fill:none;"/>
        <g transform="matrix(0.543321,0,0,1.05686,305.542,-77.8882)">
            <path d="M271.459,149.979C271.459,149.979 278.938,183.89 288.805,183.165C299.532,182.377 302.507,150.256 302.507,150.256C302.507,150.256 322.413,154.489 323.746,157.491C325.079,160.494 339.854,200.87 339.854,200.87L324.287,206.168L315.129,182.175C315.129,182.175 313.41,221.479 314.284,229.544C315.285,238.777 326.139,262.787 327.295,280.283C328.178,293.644 323.879,336.63 332.217,362.499C303.216,365.545 277.589,365.816 249.141,358.858C251.583,360.169 255.27,335.806 248.818,283.679C246.304,263.363 261.456,230.52 262.718,226.348C265.905,215.817 263.495,182.202 263.495,182.202L258.404,207.116L243.028,201.655L251.604,161.241C251.604,161.241 260.958,152.431 271.459,149.979Z" style="fill:rgb(173,191,164);"/>
        </g>
    </g>
</svg>
