<?xml version="1.0" encoding="UTF-8" standalone="no"?>
<!DOCTYPE svg PUBLIC "-//W3C//DTD SVG 1.1//EN" "http://www.w3.org/Graphics/SVG/1.1/DTD/svg11.dtd">
<svg width="100%" height="100%" viewBox="0 0 600 600" version="1.1" xmlns="http://www.w3.org/2000/svg" xmlns:xlink="http://www.w3.org/1999/xlink" xml:space="preserve" xmlns:serif="http://www.serif.com/" style="fill-rule:evenodd;clip-rule:evenodd;stroke-linejoin:round;stroke-miterlimit:1.41421;">
    <g id="women" transform="matrix(1.84053,0,0,0.946202,-562.36,73.698)">
        <rect x="305.542" y="-77.888" width="325.992" height="634.114" style="fill:none;"/>
        <g transform="matrix(0.543321,0,0,1.05686,305.542,-77.8882)">
            <path d="M275.708,144.479L289.246,174.03L301.872,146.405L308.31,151.486C308.169,151.732 322.373,156.74 322.373,156.74L342.592,209.342L344.82,208.308L346.316,218.265L328.098,227.578L324.753,217.617L326.384,216.861L313.08,175.744C313.08,175.744 313.348,204.047 314.472,220.68C315.596,237.313 323.279,269.283 323.279,269.283C323.279,269.283 302.065,301.972 285.322,302.463C268.578,302.953 250.397,273.304 250.397,273.304C250.397,273.304 260.979,232.036 262.371,221.824C263.764,211.611 264.903,182.651 264.903,182.651L255.597,220.513L256.952,221.221L253.984,231.182L237.82,221.869L239.147,211.912L240.719,212.734C243.862,197.82 250.017,168.2 250.624,162.153C251.288,155.547 263.916,152.101 268.693,151.03C268.578,150.798 268.464,150.564 268.35,150.33L275.708,144.479Z" style="fill:rgb(97,24,21);"/>
        </g>
    </g>
</svg>
