<?xml version="1.0" encoding="UTF-8" standalone="no"?>
<!DOCTYPE svg PUBLIC "-//W3C//DTD SVG 1.1//EN" "http://www.w3.org/Graphics/SVG/1.1/DTD/svg11.dtd">
<svg width="100%" height="100%" viewBox="0 0 600 600" version="1.1" xmlns="http://www.w3.org/2000/svg" xmlns:xlink="http://www.w3.org/1999/xlink" xml:space="preserve" xmlns:serif="http://www.serif.com/" style="fill-rule:evenodd;clip-rule:evenodd;stroke-linejoin:round;stroke-miterlimit:1.41421;">
    <g id="women" transform="matrix(1.84053,0,0,0.946202,-562.36,73.698)">
        <rect x="305.542" y="-77.888" width="325.992" height="634.114" style="fill:none;"/>
        <g id="Layer1" transform="matrix(1.00483,0,0,1.9543,-134.039,-530.587)">
            <g>
                <g transform="matrix(0.54071,0,0,0.540785,547.095,231.643)">
                    <path d="M55.07,88.707C54.924,73.211 59.558,53.706 80.347,53.366C102.892,52.997 107.513,73.6 107.545,89.14C109.299,88.164 111.922,87.423 111.229,92.287C110.45,97.761 108.392,100.9 106.549,101.981C106.475,102.43 106.4,102.847 106.327,103.23C102.647,122.328 92.943,122.241 90.499,129.661C88.558,135.551 92.921,141.904 94.286,146.759C95.651,151.614 112.835,152.623 119.889,159.031C126.944,165.439 141.466,222.939 141.466,222.939L160.121,282.026C160.121,282.026 162.935,298.254 162.138,309.351C161.341,320.449 153.06,317.769 153.753,314.235C154.446,310.7 153.248,299.465 153.248,299.465C153.248,299.465 152.881,307.041 152.149,307.128C151.418,307.216 150.666,303.526 148.858,299.99C147.05,296.453 152.654,285.332 152.654,285.332L132.858,235.754L108.184,171.354C108.184,171.354 108.369,206.55 107.939,224.86C107.508,243.17 120.818,269.299 123.075,291.466C124.017,300.716 116.579,382.462 113.468,399.106C110.357,415.75 110.119,549.94 110.119,549.94C110.119,549.94 113.013,566.5 111.709,572.919C110.404,579.338 106.612,582.748 103.602,582.404C100.593,582.059 93.652,570.854 93.652,570.854C93.048,575.131 89.574,582.27 86.368,582.175C79.357,581.967 74.711,574.43 74.515,569.021C74.296,562.947 74.893,551.794 74.893,551.794C74.893,551.794 61.065,411.502 60.155,394.678C59.245,377.854 46.877,288.027 46.877,288.027C44.435,271.59 59.5,235.285 60.817,226.164C62.134,217.043 61.266,170.839 61.266,170.839C61.266,170.839 52.349,217.764 48.127,238.186C44.389,256.266 39.883,289.126 43.334,293.367C48.333,299.511 47.725,314.941 42.125,299.55C42.125,299.55 45.789,315.794 43.987,318.592C41.087,323.095 37.13,317.778 36.166,315.089C34.641,310.833 33.375,297.173 34.334,287.942C35.311,278.533 31.635,251.594 34.607,233.788C38.023,213.322 46.297,172.511 47.433,165.145C48.57,157.779 63.98,151.635 70.128,149.5C76.275,147.365 76.148,134.125 75.536,130.3C74.291,122.509 61.142,118.355 57.157,105.156C56.864,104.186 56.564,102.945 56.286,101.491C54.643,100.096 52.974,97.091 52.29,92.287C51.71,88.212 53.457,88.071 55.07,88.707Z" style="fill:rgb(200,135,62);"/>
                </g>
                <g transform="matrix(0.54071,0,0,1.0556,547.095,193.997)">
                    <path d="M66.521,85.279C65.593,84.957 64.597,84.412 64.597,84.412C65.941,84.759 67.037,84.951 67.689,85.048C69.858,84.743 72.376,85.119 74.245,87.564C73.124,86.315 70.406,85.839 67.954,85.846C65.859,85.851 64.443,86.941 63.856,86.875C62.835,86.76 60.437,85.522 60.437,85.522C62.159,85.967 63.474,86.157 63.969,86.218C64.214,86.1 64.504,85.968 64.83,85.836C63.856,85.518 62.728,84.879 62.728,84.879C63.994,85.217 65.039,85.412 65.701,85.518C65.962,85.432 66.236,85.351 66.521,85.279Z"/>
                </g>
                <g transform="matrix(-0.54071,0,0,1.0556,635.816,193.596)">
                    <path d="M66.521,85.279C65.593,84.957 64.597,84.412 64.597,84.412C65.941,84.759 67.037,84.951 67.689,85.048C69.858,84.743 72.376,85.119 74.245,87.564C73.124,86.315 70.406,85.839 67.954,85.846C65.859,85.851 64.443,86.941 63.856,86.875C62.835,86.76 60.437,85.522 60.437,85.522C62.159,85.967 63.474,86.157 63.969,86.218C64.214,86.1 64.504,85.968 64.83,85.836C63.856,85.518 62.728,84.879 62.728,84.879C63.994,85.217 65.039,85.412 65.701,85.518C65.962,85.432 66.236,85.351 66.521,85.279Z"/>
                </g>
                <g transform="matrix(0.626583,0,0,0.677295,540.261,219.639)">
                    <path d="M74.543,107.214C74.543,107.214 78.542,104.777 80.247,105.885C81.953,106.993 81.502,106.595 81.502,106.595C81.502,106.595 82.269,105.455 84.043,105.541C85.892,105.631 88.865,107.078 88.865,107.078C88.865,107.078 82.786,113.531 74.543,107.214Z" style="fill:rgb(222,66,42);"/>
                </g>
                <path d="M610.207,374.102C600.208,378.559 586.979,377.103 573.589,374.954L572.399,382.755C572.399,382.755 590.371,385.079 592.575,393.71C592.575,393.71 600.397,379.09 612.574,383.306C612.189,380.156 611.711,378.631 610.207,374.102Z" style="fill:white;"/>
                <g transform="matrix(1,0,0,1.17878,0,-56.0054)">
                    <path d="M581.282,313.856L580.23,322.523L580.339,333.521L605.662,332.921L606.023,314.295L604.481,314.067L604.211,321.648C604.211,321.648 595.94,328.753 592.947,328.614C589.746,328.465 582.307,322.362 582.307,322.362L582.675,313.34L581.282,313.856Z" style="fill:white;"/>
                </g>
            </g>
        </g>
    </g>
</svg>
