<?xml version="1.0" encoding="UTF-8" standalone="no"?>
<!DOCTYPE svg PUBLIC "-//W3C//DTD SVG 1.1//EN" "http://www.w3.org/Graphics/SVG/1.1/DTD/svg11.dtd">
<svg width="100%" height="100%" viewBox="0 0 600 600" version="1.1" xmlns="http://www.w3.org/2000/svg" xmlns:xlink="http://www.w3.org/1999/xlink" xml:space="preserve" xmlns:serif="http://www.serif.com/" style="fill-rule:evenodd;clip-rule:evenodd;stroke-linejoin:round;stroke-miterlimit:1.41421;">
    <g id="women" transform="matrix(1.84053,0,0,0.946202,-562.36,73.698)">
        <rect x="305.542" y="-77.888" width="325.992" height="634.114" style="fill:none;"/>
        <g transform="matrix(0.543321,0,0,1.05686,415.697,-77.8882)">
            <path d="M77.263,65.383C77.263,65.383 88.876,80.379 97.023,81.39C105.169,82.4 106.81,86.192 106.81,86.192C106.81,86.192 108.676,93.28 106.288,103.159C103.899,113.039 102.204,116.738 96.11,121.949C92.398,125.124 88.766,126.401 90.118,133.782C91.717,142.514 94.383,152.788 91.539,160.784L100.328,153.561C100.328,153.561 100.457,162.856 98.648,169.345C98.648,169.345 110.441,154.617 114.598,129.747C118.755,104.876 129.871,44.286 81.451,50.798C81.451,50.798 61.673,47.416 55.179,59.677C48.685,71.937 47.817,79.212 45.839,96.452C44.088,111.723 45.095,156.565 67.186,167.107C64.351,160.255 63.402,157.227 65.401,151.978C67.644,156.647 70.855,160.883 74.917,164.738C74.034,161.133 74.095,156.901 74.939,152.151C77.201,144.085 77.95,135.571 75.524,126.113C71.18,123.133 65.735,119.194 60.22,109.159C60.22,109.159 54.525,95.679 56.086,88.368C57.772,80.477 62.932,63.566 77.263,65.383Z" style="fill:rgb(136,105,61);"/>
        </g>
    </g>
</svg>
