<?xml version="1.0" encoding="UTF-8" standalone="no"?>
<!DOCTYPE svg PUBLIC "-//W3C//DTD SVG 1.1//EN" "http://www.w3.org/Graphics/SVG/1.1/DTD/svg11.dtd">
<svg width="100%" height="100%" viewBox="0 0 600 600" version="1.1" xmlns="http://www.w3.org/2000/svg" xmlns:xlink="http://www.w3.org/1999/xlink" xml:space="preserve" xmlns:serif="http://www.serif.com/" style="fill-rule:evenodd;clip-rule:evenodd;stroke-linejoin:round;stroke-miterlimit:1.41421;">
    <g id="women" transform="matrix(1.84053,0,0,0.946202,-562.36,73.698)">
        <rect x="305.542" y="-77.888" width="325.992" height="634.114" style="fill:none;"/>
        <g transform="matrix(0.543321,0,0,1.05686,305.542,-77.8882)">
            <path d="M269.427,54.782C266.738,53.606 265.429,51.021 266.665,47.134C268.397,41.689 279.529,40.056 279.529,40.056C295.15,39.165 297.276,45.559 296.817,51.182C296.742,52.095 296.218,52.823 295.368,53.403C311.403,60.853 311.697,86.953 311.401,89.001C311.062,91.349 306.645,104.064 306.645,104.064C307.733,99.407 308.643,92.898 307.027,86.848C305.411,80.799 299.167,80.121 299.167,80.121L297.096,83.833C293.282,80.714 291.515,75.191 291.515,75.191L291.411,79.494C287.822,77.375 283.704,69.921 283.704,69.921C275.418,84.152 261.662,78.609 260.114,84.808C258.566,91.006 263.837,110.234 263.837,110.234C263.837,110.234 260.782,108.68 257.043,87.677C254.429,72.988 258.518,60.522 269.427,54.782Z" style="fill:rgb(73,52,36);"/>
        </g>
    </g>
</svg>
