<?xml version="1.0" encoding="UTF-8" standalone="no"?>
<!DOCTYPE svg PUBLIC "-//W3C//DTD SVG 1.1//EN" "http://www.w3.org/Graphics/SVG/1.1/DTD/svg11.dtd">
<svg width="100%" height="100%" viewBox="0 0 600 600" version="1.1" xmlns="http://www.w3.org/2000/svg" xmlns:xlink="http://www.w3.org/1999/xlink" xml:space="preserve" xmlns:serif="http://www.serif.com/" style="fill-rule:evenodd;clip-rule:evenodd;stroke-linejoin:round;stroke-miterlimit:1.41421;">
    <g id="women" transform="matrix(1.84053,0,0,0.946202,-562.36,73.698)">
        <rect x="305.542" y="-77.888" width="325.992" height="634.114" style="fill:none;"/>
        <g transform="matrix(0.543321,0,0,1.05686,305.542,-77.8882)">
            <path d="M263.328,79.345C261.998,82.582 261.087,85.836 260.405,88.337C258.53,95.211 261.5,106.538 262.877,110.815C264.254,115.091 274.559,124.064 277.678,127.229C280.797,130.393 279.306,135.377 279.306,135.377L258.001,136.361C258.001,136.361 261.271,124.045 257.645,113.347C254.018,102.649 251.227,96.995 251.561,90.308C251.895,83.621 257.247,69.739 264.194,58.378C271.14,47.017 283.155,50.41 283.155,50.41C301.2,52.323 306.555,53.862 318.283,72.187C330.01,90.513 321.715,134.071 321.715,134.071L292.961,136.26L292.529,132.898C291.54,126.387 293.634,128.599 296.697,125.216C299.761,121.833 305.965,115.088 308.063,107.176C310.162,99.263 309.984,91.54 309.984,91.54L307.57,85.547C307.57,85.547 306.352,83.093 304.331,79.782L263.328,79.345Z" style="fill:rgb(128,71,50);"/>
        </g>
    </g>
</svg>
