<?xml version="1.0" encoding="UTF-8" standalone="no"?>
<!DOCTYPE svg PUBLIC "-//W3C//DTD SVG 1.1//EN" "http://www.w3.org/Graphics/SVG/1.1/DTD/svg11.dtd">
<svg width="100%" height="100%" viewBox="0 0 600 600" version="1.1" xmlns="http://www.w3.org/2000/svg" xmlns:xlink="http://www.w3.org/1999/xlink" xml:space="preserve" xmlns:serif="http://www.serif.com/" style="fill-rule:evenodd;clip-rule:evenodd;stroke-linejoin:round;stroke-miterlimit:2;">
    <g transform="matrix(1,0,0,1,-661.089,-0.0579254)">
        <g id="man" transform="matrix(1.84053,0,0,0.946202,98.7293,73.7559)">
            <rect x="305.542" y="-77.888" width="325.992" height="634.114" style="fill:none;"/>
            <g transform="matrix(0.543321,0,0,1.05686,-53.6417,-77.9494)">
                <path d="M927.848,129.693C927.848,129.693 934.507,145.27 946.198,144.305C950.506,143.949 960.399,136.663 961.089,130.126C961.089,130.126 997.527,136.325 1002.37,138.237C1007.21,140.149 1010.9,141.68 1011.7,148.105C1012.51,154.53 1016.52,200.415 1016.52,200.415L989.703,203.976L988.065,171.8C988.065,171.8 984.726,204.999 984.746,220.909C984.766,236.818 989.294,287.268 989.294,287.268L899.029,285.294C899.029,285.294 903.728,195.68 901.144,180.13L899.029,201.602L874.338,195.565L877.849,148.131C877.849,148.131 880.859,137.678 889.055,136.757C897.25,135.836 927.848,129.693 927.848,129.693Z" style="fill:rgb(114,133,106);"/>
            </g>
        </g>
    </g>
</svg>
